<svg xmlns="http://www.w3.org/2000/svg" xmlns:xlink="http://www.w3.org/1999/xlink" xml:space="preserve" version="1.1" style="shape-rendering:geometricPrecision;text-rendering:geometricPrecision;image-rendering:optimizeQuality;" viewBox="0 0 195 45" x="0px" y="0px" fill-rule="evenodd" clip-rule="evenodd"><defs><style type="text/css">
   
    .fil0 {fill:black;fill-rule:nonzero}
   
  </style></defs><g><path class="fil0" d="M72 7l9 11c2,2 -2,6 -4,3l-9 -11c-1,1 -1,1 -2,1l8 12c1,3 -3,6 -5,3l-7 -12c-1,0 -2,0 -2,0l6 14c1,3 -4,5 -5,2l-6 -14c-1,0 -1,0 -2,0l4 15c1,3 -4,4 -5,1l-4 -15c0,0 -1,0 -1,0l1 16c0,3 -5,4 -5,0l-2 -15 -1 0 -1 15c0,4 -6,3 -5,0l1 -16c-1,0 -2,0 -2,0l-3 15c-1,4 -6,3 -5,-1l3 -15c-1,0 -1,0 -2,0l-5 14c-1,3 -6,1 -5,-2l5 -14c0,0 -1,0 -1,-1l-8 13c-1,3 -6,1 -4,-2l7 -13c0,0 -1,-1 -1,-1l-9 12c-2,2 -7,-1 -4,-4l9 -11c-1,-1 -2,-2 -3,-3 -2,-2 2,-6 4,-3 13,15 47,15 59,0 3,-3 7,1 4,3 0,1 -1,2 -2,3z"/><path class="fil0" d="M185 7l9 11c2,2 -2,6 -4,3l-9 -11c0,1 -1,1 -1,1l7 12c2,3 -3,6 -5,3l-7 -12c-1,0 -1,0 -2,0l6 14c1,3 -4,5 -5,2l-6 -14c0,0 -1,0 -1,0l3 15c1,3 -4,4 -5,1l-3 -15c-1,0 -2,0 -2,0l1 16c1,3 -5,4 -5,0l-1 -15 -2 0 -1 15c0,4 -5,3 -5,0l1 -16c-1,0 -1,0 -2,0l-3 15c-1,4 -6,3 -5,-1l3 -15c0,0 -1,0 -1,0l-6 14c-1,3 -6,1 -5,-2l6 -14c-1,0 -1,0 -2,-1l-7 13c-2,3 -6,1 -5,-2l8 -13c-1,0 -2,-1 -2,-1l-9 12c-2,2 -6,-1 -4,-4l9 -11c-1,-1 -2,-2 -3,-3 -2,-2 2,-6 4,-3 13,15 47,15 60,0 2,-3 6,1 4,3 -1,1 -2,2 -3,3z"/></g><text x="0" y="51" fill="#000000" font-size="5px" font-weight="bold" font-family="'Helvetica Neue', Helvetica, Arial-Unicode, Arial, Sans-serif">Created by sigra</text><text x="0" y="56" fill="#000000" font-size="5px" font-weight="bold" font-family="'Helvetica Neue', Helvetica, Arial-Unicode, Arial, Sans-serif">from the Noun Project</text></svg>